<?xml version="1.0" encoding="iso-8859-1"?>
<!-- Generator: Adobe Illustrator 19.0.0, SVG Export Plug-In . SVG Version: 6.00 Build 0)  -->
<svg xmlns="http://www.w3.org/2000/svg" xmlns:xlink="http://www.w3.org/1999/xlink" version="1.1" id="Capa_1" x="0px" y="0px" viewBox="0 0 512 512" style="enable-background:new 0 0 512 512;" xml:space="preserve" width="512px" height="512px">
<g>
	<g>
		<path d="M467,0H45C20.187,0,0,20.187,0,45v332c0,24.813,20.187,45,45,45h160.188l-20,60H136c-8.284,0-15,6.716-15,15    s6.716,15,15,15c12.87,0,232.312,0,240,0c8.284,0,15-6.716,15-15s-6.716-15-15-15h-49.188l-20-60H467c24.813,0,45-20.187,45-45V45    C512,20.187,491.813,0,467,0z M216.811,482l20-60h38.377l20,60H216.811z M482,377c0,8.271-6.729,15-15,15    c-9.728,0-410.011,0-422,0c-8.271,0-15-6.729-15-15v-15h452V377z M482,332H30V45c0-8.271,6.729-15,15-15h422    c8.271,0,15,6.729,15,15V332z" fill="#9f6ff5"/>
	</g>
</g>
<g>
	<g>
		<path d="M354.321,123.519l-90-60c-5.038-3.359-11.603-3.359-16.641,0l-90,60c-4.15,2.767-6.68,7.488-6.68,12.481v90    c0,5.015,2.506,9.699,6.68,12.481l90,60c4.974,3.316,11.549,3.395,16.641,0l90-60c4.173-2.782,6.68-7.465,6.68-12.481v-90    C361.001,130.928,358.401,126.24,354.321,123.519z M241,257.972l-60-40v-53.944l60,40V257.972z M256,177.972L193.042,136    L256,94.028L318.958,136L256,177.972z M331,217.972l-60,40v-53.944l60-40V217.972z" fill="#9f6ff5"/>
	</g>
</g>
<g>
</g>
<g>
</g>
<g>
</g>
<g>
</g>
<g>
</g>
<g>
</g>
<g>
</g>
<g>
</g>
<g>
</g>
<g>
</g>
<g>
</g>
<g>
</g>
<g>
</g>
<g>
</g>
<g>
</g>
</svg>
